<svg xmlns="http://www.w3.org/2000/svg" width="600" height="360" viewBox="0 0 600 360" role="img" aria-label="Insightistic dashboard preview">
  <rect width="600" height="360" rx="16" fill="#14211F"/>
  <rect width="600" height="44" rx="16" fill="#101A18"/>
  <circle cx="22" cy="22" r="5" fill="#FF6B6B"/><circle cx="40" cy="22" r="5" fill="#F6C453"/><circle cx="58" cy="22" r="5" fill="#00D084"/>
  <g fill="#0F1B19" stroke="#1f302c">
    <rect x="20" y="64" width="130" height="70" rx="10"/><rect x="160" y="64" width="130" height="70" rx="10"/>
    <rect x="300" y="64" width="130" height="70" rx="10"/><rect x="440" y="64" width="140" height="70" rx="10"/>
  </g>
  <g fill="#FFFFFF" font-family="-apple-system, Segoe UI, Roboto, sans-serif" font-weight="800" font-size="20">
    <text x="34" y="112">$48,920</text><text x="174" y="112">1,284</text><text x="314" y="112">612</text><text x="454" y="112">86</text>
  </g>
  <g fill="#9FB4AD" font-family="-apple-system, Segoe UI, Roboto, sans-serif" font-size="11">
    <text x="34" y="86">Revenue</text><text x="174" y="86">Orders</text><text x="314" y="86">New customers</text><text x="454" y="86">AI health</text>
  </g>
  <rect x="20" y="150" width="560" height="186" rx="12" fill="#0F1B19" stroke="#1f302c"/>
  <defs><linearGradient id="dpArea" x1="0" y1="0" x2="0" y2="1"><stop offset="0%" stop-color="#00C04B" stop-opacity="0.35"/><stop offset="100%" stop-color="#00C04B" stop-opacity="0"/></linearGradient></defs>
  <path d="M40,300 C100,290 140,270 200,262 260,254 300,224 360,206 420,188 470,160 540,140 L540,318 L40,318 Z" fill="url(#dpArea)"/>
  <path d="M40,300 C100,290 140,270 200,262 260,254 300,224 360,206 420,188 470,160 540,140" fill="none" stroke="#00C04B" stroke-width="3"/>
</svg>
